<?xml version="1.0" encoding="iso-8859-1"?>
<!-- Generator: Adobe Illustrator 22.0.1, SVG Export Plug-In . SVG Version: 6.00 Build 0)  -->
<svg version="1.1" id="Layer_1" xmlns="http://www.w3.org/2000/svg" xmlns:xlink="http://www.w3.org/1999/xlink" x="0px" y="0px"
	 viewBox="0 0 2048 2048" style="enable-background:new 0 0 2048 2048;" xml:space="preserve">
<g>
	<g>
		<g>
			<path style="fill:#CFD8DD;" d="M1405.232,1760.36c-6.341,0-12.68-2.418-17.518-7.256L1243.39,1608.78
				c-4.646-4.646-7.256-10.948-7.256-17.518v-272.688c0-13.682,11.092-24.774,24.774-24.774c13.682,0,24.774,11.092,24.774,24.774
				V1581l137.067,137.067c9.674,9.675,9.674,25.361,0,35.036C1417.912,1757.941,1411.572,1760.36,1405.232,1760.36z"/>
		</g>
	</g>
	<circle style="fill:#72B8CE;" cx="1410.685" cy="1741.04" r="50.96"/>
	<g>
		<g>
			<path style="fill:#CFD8DD;" d="M644.489,1758.639c-6.34,0-12.68-2.418-17.518-7.256c-9.675-9.675-9.675-25.361,0-35.036
				L762.318,1581v-262.426c0-13.682,11.092-24.774,24.774-24.774s24.774,11.092,24.774,24.774v272.688
				c0,6.571-2.61,12.872-7.256,17.518l-142.603,142.603C657.169,1756.221,650.829,1758.639,644.489,1758.639z"/>
		</g>
	</g>
	<circle style="fill:#72B8CE;" cx="637.315" cy="1741.04" r="50.96"/>
	<g>
		<g>
			<path style="fill:#CFD8DD;" d="M1024.009,1611.355c-13.682,0-24.774-11.092-24.774-24.774v-267.914
				c0-13.682,11.092-24.821,24.774-24.821c13.682,0,24.774,11.045,24.774,24.728v268.007
				C1048.782,1600.263,1037.691,1611.355,1024.009,1611.355z"/>
		</g>
	</g>
	<circle style="fill:#72B8CE;" cx="1024.009" cy="1606.202" r="50.96"/>
	<path style="fill:#BBECFF;" d="M579.063,1318.573c-175.76,0-318.249-142.489-318.249-318.263
		c0-87.887,35.629-167.446,93.209-225.04c57.594-57.594,137.167-93.209,225.04-93.209h18.876C597.939,446.748,788.688,256,1024,256
		s426.061,190.748,426.061,426.061h18.876c175.76,0,318.25,142.475,318.25,318.249c0,87.887-35.629,167.446-93.209,225.054
		c-57.594,57.58-137.167,93.209-225.04,93.209H579.063z"/>
</g>
</svg>
